<svg width="497" height="173" viewBox="0 0 497 173" fill="none" xmlns="http://www.w3.org/2000/svg">
<g clip-path="url(#clip0_38_20)">
<mask id="mask0_38_20" style="mask-type:alpha" maskUnits="userSpaceOnUse" x="71" y="11" width="352" height="88">
<path d="M71.032 98.04V11H97.5783C104.076 11 109.206 11.9387 112.967 13.816C116.815 15.6933 119.551 18.3387 121.175 21.752C122.885 25.1653 123.74 29.176 123.74 33.784V37.368C123.74 44.1093 120.833 49.272 115.019 52.856C119.123 54.4773 122.244 56.824 124.381 59.896C126.518 62.968 127.587 66.6373 127.587 70.904V74.488C127.587 79.181 126.732 83.32 125.022 86.904C123.312 90.403 120.491 93.133 116.558 95.096C112.625 97.059 107.368 98.04 100.784 98.04H71.032ZM97.5783 25.08H86.4212V46.84H97.5783C100.998 46.84 103.563 46.072 105.273 44.536C107.068 42.9147 107.966 40.7387 107.966 38.008V33.784C107.966 31.0533 107.068 28.92 105.273 27.384C103.563 25.848 100.998 25.08 97.5783 25.08ZM100.784 60.92H86.4212V83.96H100.784C104.375 83.96 107.111 83.107 108.992 81.4C110.873 79.693 111.813 77.389 111.813 74.488V70.264C111.813 67.3627 110.873 65.1013 108.992 63.48C107.111 61.7733 104.375 60.92 100.784 60.92ZM191.847 98.04L186.461 81.016H156.58L151.194 98.04H135.933L165.044 11H178.638L207.877 98.04H191.847ZM164.916 54.392L160.94 66.936H181.972L177.997 54.392L171.584 32.376L164.916 54.392ZM277.727 11L250.026 98.04H234.252L206.423 11H223.352L236.561 54.776L242.588 77.304L249 54.648L262.081 11H277.727ZM342.102 83.32V98.04H291.575V11H340.82V25.72H306.964V46.584H336.973V61.304H306.964V83.32H342.102ZM375.719 66.04V98.04H360.33V11H389.441C398.247 11 405.002 13.2613 409.704 17.784C414.492 22.2213 416.885 28.1947 416.885 35.704V41.208C416.885 46.1573 415.816 50.5093 413.679 54.264C411.542 58.0187 408.464 60.8773 404.446 62.84C411.456 74.787 417.441 86.52 422.4 98.04H404.83C400.555 87.373 395.469 76.707 389.569 66.04H375.719ZM389.441 25.08H375.719V51.96H389.441C393.203 51.96 396.067 51.0213 398.033 49.144C400.085 47.1813 401.111 44.536 401.111 41.208V35.704C401.111 32.4613 400.085 29.9013 398.033 28.024C396.067 26.0613 393.203 25.08 389.441 25.08Z" fill="white"/>
</mask>
<g mask="url(#mask0_38_20)">
<mask id="mask1_38_20" style="mask-type:alpha" maskUnits="userSpaceOnUse" x="71" y="11" width="352" height="88">
<path d="M71.032 98.04V11H97.5783C104.076 11 109.206 11.9387 112.967 13.816C116.815 15.6933 119.551 18.3387 121.175 21.752C122.885 25.1653 123.74 29.176 123.74 33.784V37.368C123.74 44.1093 120.833 49.272 115.019 52.856C119.123 54.4773 122.244 56.824 124.381 59.896C126.518 62.968 127.587 66.6373 127.587 70.904V74.488C127.587 79.181 126.732 83.32 125.022 86.904C123.312 90.403 120.491 93.133 116.558 95.096C112.625 97.059 107.368 98.04 100.784 98.04H71.032ZM97.5783 25.08H86.4212V46.84H97.5783C100.998 46.84 103.563 46.072 105.273 44.536C107.068 42.9147 107.966 40.7387 107.966 38.008V33.784C107.966 31.0533 107.068 28.92 105.273 27.384C103.563 25.848 100.998 25.08 97.5783 25.08ZM100.784 60.92H86.4212V83.96H100.784C104.375 83.96 107.111 83.107 108.992 81.4C110.873 79.693 111.813 77.389 111.813 74.488V70.264C111.813 67.3627 110.873 65.1013 108.992 63.48C107.111 61.7733 104.375 60.92 100.784 60.92ZM191.847 98.04L186.461 81.016H156.58L151.194 98.04H135.933L165.044 11H178.638L207.877 98.04H191.847ZM164.916 54.392L160.94 66.936H181.972L177.997 54.392L171.584 32.376L164.916 54.392ZM277.727 11L250.026 98.04H234.252L206.423 11H223.352L236.561 54.776L242.588 77.304L249 54.648L262.081 11H277.727ZM342.102 83.32V98.04H291.575V11H340.82V25.72H306.964V46.584H336.973V61.304H306.964V83.32H342.102ZM375.719 66.04V98.04H360.33V11H389.441C398.247 11 405.002 13.2613 409.704 17.784C414.492 22.2213 416.885 28.1947 416.885 35.704V41.208C416.885 46.1573 415.816 50.5093 413.679 54.264C411.542 58.0187 408.464 60.8773 404.446 62.84C411.456 74.787 417.441 86.52 422.4 98.04H404.83C400.555 87.373 395.469 76.707 389.569 66.04H375.719ZM389.441 25.08H375.719V51.96H389.441C393.203 51.96 396.067 51.0213 398.033 49.144C400.085 47.1813 401.111 44.536 401.111 41.208V35.704C401.111 32.4613 400.085 29.9013 398.033 28.024C396.067 26.0613 393.203 25.08 389.441 25.08Z" fill="white"/>
</mask>
<g mask="url(#mask1_38_20)">
<path d="M280.064 -26.96H-23.6814V166.04H280.064V-26.96Z" fill="#2ABABB"/>
</g>
<mask id="mask2_38_20" style="mask-type:alpha" maskUnits="userSpaceOnUse" x="71" y="11" width="352" height="88">
<path d="M71.032 98.04V11H97.5783C104.076 11 109.206 11.9387 112.967 13.816C116.815 15.6933 119.551 18.3387 121.175 21.752C122.885 25.1653 123.74 29.176 123.74 33.784V37.368C123.74 44.1093 120.833 49.272 115.019 52.856C119.123 54.4773 122.244 56.824 124.381 59.896C126.518 62.968 127.587 66.6373 127.587 70.904V74.488C127.587 79.181 126.732 83.32 125.022 86.904C123.312 90.403 120.491 93.133 116.558 95.096C112.625 97.059 107.368 98.04 100.784 98.04H71.032ZM97.5783 25.08H86.4212V46.84H97.5783C100.998 46.84 103.563 46.072 105.273 44.536C107.068 42.9147 107.966 40.7387 107.966 38.008V33.784C107.966 31.0533 107.068 28.92 105.273 27.384C103.563 25.848 100.998 25.08 97.5783 25.08ZM100.784 60.92H86.4212V83.96H100.784C104.375 83.96 107.111 83.107 108.992 81.4C110.873 79.693 111.813 77.389 111.813 74.488V70.264C111.813 67.3627 110.873 65.1013 108.992 63.48C107.111 61.7733 104.375 60.92 100.784 60.92ZM191.847 98.04L186.461 81.016H156.58L151.194 98.04H135.933L165.044 11H178.638L207.877 98.04H191.847ZM164.916 54.392L160.94 66.936H181.972L177.997 54.392L171.584 32.376L164.916 54.392ZM277.727 11L250.026 98.04H234.252L206.423 11H223.352L236.561 54.776L242.588 77.304L249 54.648L262.081 11H277.727ZM342.102 83.32V98.04H291.575V11H340.82V25.72H306.964V46.584H336.973V61.304H306.964V83.32H342.102ZM375.719 66.04V98.04H360.33V11H389.441C398.247 11 405.002 13.2613 409.704 17.784C414.492 22.2213 416.885 28.1947 416.885 35.704V41.208C416.885 46.1573 415.816 50.5093 413.679 54.264C411.542 58.0187 408.464 60.8773 404.446 62.84C411.456 74.787 417.441 86.52 422.4 98.04H404.83C400.555 87.373 395.469 76.707 389.569 66.04H375.719ZM389.441 25.08H375.719V51.96H389.441C393.203 51.96 396.067 51.0213 398.033 49.144C400.085 47.1813 401.111 44.536 401.111 41.208V35.704C401.111 32.4613 400.085 29.9013 398.033 28.024C396.067 26.0613 393.203 25.08 389.441 25.08Z" fill="white"/>
</mask>
<g mask="url(#mask2_38_20)">
<path d="M337.798 -63.96H272.981V38.04H337.798V-63.96Z" fill="#2ABABB"/>
</g>
<path d="M458.328 -26.96H346.788V149.04H458.328V-26.96Z" fill="black"/>
<path d="M390.583 38.04H279.043V214.04H390.583V38.04Z" fill="black"/>
</g>
<circle cx="172.5" cy="147.5" r="2.5" fill="#2ABABB"/>
<circle cx="279.5" cy="147.5" r="2.5" fill="#2ABABB"/>
<path d="M74.6548 136.455L81.348 155.433H81.6122L88.3054 136.455H91.1676L82.8892 159H80.071L71.7926 136.455H74.6548ZM112.952 147.727C112.952 150.105 112.523 152.16 111.664 153.892C110.806 155.624 109.628 156.96 108.131 157.899C106.634 158.839 104.924 159.308 103.001 159.308C101.078 159.308 99.368 158.839 97.8708 157.899C96.3737 156.96 95.1957 155.624 94.3371 153.892C93.4784 152.16 93.0491 150.105 93.0491 147.727C93.0491 145.349 93.4784 143.295 94.3371 141.562C95.1957 139.83 96.3737 138.495 97.8708 137.555C99.368 136.616 101.078 136.146 103.001 136.146C104.924 136.146 106.634 136.616 108.131 137.555C109.628 138.495 110.806 139.83 111.664 141.562C112.523 143.295 112.952 145.349 112.952 147.727ZM110.31 147.727C110.31 145.775 109.984 144.127 109.331 142.784C108.685 141.441 107.808 140.425 106.7 139.735C105.599 139.045 104.366 138.7 103.001 138.7C101.636 138.7 100.399 139.045 99.2909 139.735C98.1901 140.425 97.313 141.441 96.6599 142.784C96.014 144.127 95.6911 145.775 95.6911 147.727C95.6911 149.679 96.014 151.327 96.6599 152.67C97.313 154.013 98.1901 155.03 99.2909 155.719C100.399 156.409 101.636 156.754 103.001 156.754C104.366 156.754 105.599 156.409 106.7 155.719C107.808 155.03 108.685 154.013 109.331 152.67C109.984 151.327 110.31 149.679 110.31 147.727ZM124.81 159H117.853V136.455H125.119C127.306 136.455 129.177 136.906 130.733 137.809C132.289 138.704 133.481 139.992 134.311 141.673C135.14 143.346 135.555 145.349 135.555 147.683C135.555 150.032 135.136 152.054 134.3 153.749C133.463 155.437 132.245 156.736 130.645 157.646C129.045 158.549 127.1 159 124.81 159ZM120.583 156.578H124.634C126.498 156.578 128.043 156.219 129.269 155.499C130.494 154.78 131.408 153.756 132.01 152.428C132.612 151.1 132.913 149.518 132.913 147.683C132.913 145.863 132.615 144.296 132.021 142.983C131.427 141.662 130.539 140.649 129.357 139.944C128.175 139.232 126.704 138.876 124.943 138.876H120.583V156.578ZM140.309 159H137.447L145.726 136.455H148.544L156.822 159H153.96L147.223 140.021H147.047L140.309 159ZM141.366 150.193H152.903V152.615H141.366V150.193ZM187.73 159V136.455H195.348C197.117 136.455 198.563 136.774 199.685 137.412C200.816 138.043 201.652 138.898 202.195 139.977C202.738 141.056 203.01 142.26 203.01 143.588C203.01 144.916 202.738 146.124 202.195 147.21C201.66 148.296 200.83 149.162 199.707 149.808C198.585 150.446 197.146 150.766 195.392 150.766H189.932V148.344H195.304C196.515 148.344 197.487 148.135 198.221 147.716C198.955 147.298 199.487 146.733 199.818 146.021C200.155 145.302 200.324 144.491 200.324 143.588C200.324 142.685 200.155 141.878 199.818 141.166C199.487 140.454 198.952 139.897 198.21 139.493C197.469 139.082 196.486 138.876 195.26 138.876H190.46V159H187.73ZM207.718 159V136.455H210.448V156.578H220.928V159H207.718ZM222.468 136.455H225.595L231.848 146.979H232.112L238.365 136.455H241.491L233.345 149.709V159H230.615V149.709L222.468 136.455ZM263.21 136.455V159H260.568L248.282 141.298H248.062V159H245.332V136.455H247.974L260.304 154.2H260.524V136.455H263.21ZM296.069 159V136.455H298.799V147.639H299.063L309.191 136.455H312.758L303.291 146.626L312.758 159H309.455L301.617 148.52L298.799 151.69V159H296.069ZM331.397 136.455H334.127V151.382C334.127 152.923 333.764 154.299 333.038 155.51C332.318 156.714 331.302 157.664 329.988 158.362C328.674 159.051 327.133 159.396 325.365 159.396C323.596 159.396 322.055 159.051 320.741 158.362C319.427 157.664 318.407 156.714 317.681 155.51C316.961 154.299 316.602 152.923 316.602 151.382V136.455H319.332V151.162C319.332 152.263 319.574 153.243 320.058 154.101C320.543 154.953 321.233 155.624 322.128 156.116C323.031 156.6 324.11 156.842 325.365 156.842C326.62 156.842 327.698 156.6 328.601 156.116C329.504 155.624 330.194 154.953 330.671 154.101C331.155 153.243 331.397 152.263 331.397 151.162V136.455ZM324.176 134.165L326.862 129.057H329.9L326.465 134.165H324.176ZM339.889 159V136.455H347.507C349.269 136.455 350.714 136.755 351.845 137.357C352.975 137.952 353.811 138.77 354.355 139.812C354.898 140.854 355.169 142.04 355.169 143.368C355.169 144.696 354.898 145.874 354.355 146.902C353.811 147.929 352.978 148.736 351.856 149.324C350.733 149.903 349.298 150.193 347.551 150.193H341.386V147.727H347.463C348.667 147.727 349.636 147.551 350.369 147.199C351.111 146.847 351.646 146.348 351.977 145.702C352.314 145.049 352.483 144.271 352.483 143.368C352.483 142.465 352.314 141.676 351.977 141.001C351.639 140.326 351.1 139.805 350.358 139.438C349.617 139.064 348.637 138.876 347.419 138.876H342.619V159H339.889ZM350.502 148.872L356.05 159H352.879L347.419 148.872H350.502ZM360.028 159V136.455H373.635V138.876H362.759V146.494H372.93V148.916H362.759V156.578H373.811V159H360.028ZM396.744 136.455V159H394.102L381.816 141.298H381.596V159H378.866V136.455H381.508L393.837 154.2H394.058V136.455H396.744ZM405.247 136.455V159H402.517V136.455H405.247ZM411.031 159V136.455H424.637V138.876H413.761V146.494H423.933V148.916H413.761V156.578H424.813V159H411.031Z" fill="black"/>
<path d="M76 119C164.707 105.667 330.293 105.667 419 119" stroke="#2ABABB" stroke-width="10" stroke-linecap="round"/>
</g>
<defs>
<clipPath id="clip0_38_20">
<rect width="497" height="173" fill="white"/>
</clipPath>
</defs>
</svg>
